# xmcd
#
# Track frame offsets:
#	150
#	15058
#	27509
#	50935
#	78849
#	101734
#	128596
#	149261
#	177905
#	197732
#	222102
#	253213
#
# Disc length: 4309 seconds
#
# Revision: 1
# Processed by: cddbd v1.5.1PL0 Copyright (c) Steve Scherf et al.
# Submitted via: audiograbber 1.83.01
#
DISCID=a310d30c
DTITLE=Станция Мир - CurrentBluesic
DYEAR=2004
DGENRE=Blues
TTITLE0=Крыша
TTITLE1=Метро
TTITLE2=Сатьяграха
TTITLE3=6/4
TTITLE4=Гуппи
TTITLE5=Вавилон
TTITLE6=Наше Радио
TTITLE7=Карнатавры
TTITLE8=Imjustyourfool (Little Walter)
TTITLE9=Don't let me be musunderstood (Nina Simone)
TTITLE10=Travelling Riverside Funk (Robert Johnson)
TTITLE11=Дорога в Космос
EXTD=Записан в клубе "Култрейн" ("Б2") 23 марта и 13 апреля 2004г. Режиссер зап
EXTD=иси Карандаш (Студия ЛКК). Кроме последнего трека, записанного Алексеем Де
EXTD=нисовым 13 июня 2004 года на фестивале "Пустые Холмы" под Тарусой. Сведени
EXTD=е и саунд-продюссинг - Алексей Денисов. (При активном участии Романа Грине
EXTD=ва).
EXTT0=
EXTT1=
EXTT2=
EXTT3=
EXTT4=
EXTT5=
EXTT6=
EXTT7=
EXTT8=
EXTT9=
EXTT10=
EXTT11=
PLAYORDER=
